<svg xmlns:xlink="http://www.w3.org/1999/xlink" width="2.079ex" height="2.176ex" style="font-size: 15px; vertical-align: -0.338ex;" viewBox="0 -791.3 895 936.9" role="img" focusable="false" xmlns="http://www.w3.org/2000/svg">
<defs>
<path stroke-width="1" id="E1-MJMAINB-33" d="M80 503Q80 565 133 610T274 655Q366 655 421 623T491 538Q493 528 493 510Q493 446 453 407T361 348L376 344Q452 324 489 281T526 184Q526 152 514 121T474 58T392 8T265 -11Q175 -11 111 34T48 152Q50 187 72 209T132 232Q171 232 193 208T216 147Q216 136 214 126T207 108T197 94T187 84T178 77T170 72L168 71Q168 70 179 65T215 54T266 48H270Q331 48 350 105Q358 128 358 185Q358 239 348 268T309 313Q292 321 242 322Q205 322 198 324T191 341V348Q191 366 196 369T232 375Q239 375 247 376T260 377T268 378Q284 383 297 393T326 436T341 517Q341 536 339 547T331 573T308 593T266 600Q248 600 241 599Q214 593 183 576Q234 556 234 503Q234 462 210 444T157 426Q126 426 103 446T80 503Z"></path>
<path stroke-width="1" id="E1-MJMAINB-2E" d="M74 85Q74 121 99 146T156 171Q200 171 222 143T245 85Q245 56 224 29T160 1Q118 1 96 27T74 85Z"></path>
</defs>
<g stroke="currentColor" fill="currentColor" stroke-width="0" transform="matrix(1 0 0 -1 0 0)">
 <use xlink:href="#E1-MJMAINB-33"></use>
 <use xlink:href="#E1-MJMAINB-2E" x="575" y="0"></use>
</g>
</svg>